<mxfile host="Electron" modified="2024-07-04T13:54:38.574Z" agent="Mozilla/5.0 (Windows NT 10.0; Win64; x64) AppleWebKit/537.36 (KHTML, like Gecko) draw.io/24.5.3 Chrome/124.0.6367.207 Electron/30.0.6 Safari/537.36" etag="FkbQhyx0WPZeQZ1JebOC" version="24.5.3" type="device">
  <diagram name="Seite-1" id="DA5Zp72VX7TOBuvm9LFl">
    <mxGraphModel dx="1843" dy="887" grid="1" gridSize="10" guides="1" tooltips="1" connect="1" arrows="1" fold="1" page="1" pageScale="1" pageWidth="827" pageHeight="1169" math="0" shadow="0">
      <root>
        <mxCell id="0" />
        <mxCell id="1" parent="0" />
        <mxCell id="rwb06WOGkpm9rsAGAVGV-11" style="edgeStyle=orthogonalEdgeStyle;rounded=0;orthogonalLoop=1;jettySize=auto;html=1;" edge="1" parent="1" source="rwb06WOGkpm9rsAGAVGV-1" target="rwb06WOGkpm9rsAGAVGV-10">
          <mxGeometry relative="1" as="geometry">
            <Array as="points">
              <mxPoint x="500" y="150" />
            </Array>
          </mxGeometry>
        </mxCell>
        <mxCell id="rwb06WOGkpm9rsAGAVGV-21" style="edgeStyle=orthogonalEdgeStyle;rounded=0;orthogonalLoop=1;jettySize=auto;html=1;entryX=0.5;entryY=0;entryDx=0;entryDy=0;" edge="1" parent="1" source="rwb06WOGkpm9rsAGAVGV-1" target="rwb06WOGkpm9rsAGAVGV-20">
          <mxGeometry relative="1" as="geometry">
            <Array as="points">
              <mxPoint x="340" y="150" />
            </Array>
          </mxGeometry>
        </mxCell>
        <mxCell id="rwb06WOGkpm9rsAGAVGV-34" style="edgeStyle=orthogonalEdgeStyle;rounded=0;orthogonalLoop=1;jettySize=auto;html=1;" edge="1" parent="1" source="rwb06WOGkpm9rsAGAVGV-1" target="rwb06WOGkpm9rsAGAVGV-33">
          <mxGeometry relative="1" as="geometry" />
        </mxCell>
        <mxCell id="rwb06WOGkpm9rsAGAVGV-36" style="edgeStyle=orthogonalEdgeStyle;rounded=0;orthogonalLoop=1;jettySize=auto;html=1;" edge="1" parent="1" source="rwb06WOGkpm9rsAGAVGV-1" target="rwb06WOGkpm9rsAGAVGV-35">
          <mxGeometry relative="1" as="geometry" />
        </mxCell>
        <mxCell id="rwb06WOGkpm9rsAGAVGV-1" value="App" style="rounded=1;whiteSpace=wrap;html=1;" vertex="1" parent="1">
          <mxGeometry x="360" y="120" width="120" height="60" as="geometry" />
        </mxCell>
        <mxCell id="rwb06WOGkpm9rsAGAVGV-44" style="edgeStyle=orthogonalEdgeStyle;rounded=0;orthogonalLoop=1;jettySize=auto;html=1;entryX=1;entryY=0.5;entryDx=0;entryDy=0;" edge="1" parent="1" source="rwb06WOGkpm9rsAGAVGV-2" target="rwb06WOGkpm9rsAGAVGV-20">
          <mxGeometry relative="1" as="geometry">
            <Array as="points">
              <mxPoint x="420" y="380" />
              <mxPoint x="420" y="250" />
            </Array>
          </mxGeometry>
        </mxCell>
        <mxCell id="rwb06WOGkpm9rsAGAVGV-45" style="edgeStyle=orthogonalEdgeStyle;rounded=0;orthogonalLoop=1;jettySize=auto;html=1;entryX=0;entryY=0.5;entryDx=0;entryDy=0;" edge="1" parent="1" source="rwb06WOGkpm9rsAGAVGV-2" target="rwb06WOGkpm9rsAGAVGV-38">
          <mxGeometry relative="1" as="geometry">
            <Array as="points">
              <mxPoint x="500" y="470" />
              <mxPoint x="60" y="470" />
              <mxPoint x="60" y="350" />
            </Array>
          </mxGeometry>
        </mxCell>
        <mxCell id="rwb06WOGkpm9rsAGAVGV-2" value="Aufnahmen Page" style="rounded=1;whiteSpace=wrap;html=1;" vertex="1" parent="1">
          <mxGeometry x="440" y="350" width="120" height="60" as="geometry" />
        </mxCell>
        <mxCell id="rwb06WOGkpm9rsAGAVGV-46" style="edgeStyle=orthogonalEdgeStyle;rounded=0;orthogonalLoop=1;jettySize=auto;html=1;entryX=0.5;entryY=1;entryDx=0;entryDy=0;" edge="1" parent="1" source="rwb06WOGkpm9rsAGAVGV-3" target="rwb06WOGkpm9rsAGAVGV-38">
          <mxGeometry relative="1" as="geometry">
            <Array as="points">
              <mxPoint x="600" y="380" />
              <mxPoint x="600" y="490" />
              <mxPoint x="40" y="490" />
              <mxPoint x="40" y="380" />
              <mxPoint x="140" y="380" />
            </Array>
          </mxGeometry>
        </mxCell>
        <mxCell id="rwb06WOGkpm9rsAGAVGV-49" style="edgeStyle=orthogonalEdgeStyle;rounded=0;orthogonalLoop=1;jettySize=auto;html=1;" edge="1" parent="1" source="rwb06WOGkpm9rsAGAVGV-3" target="rwb06WOGkpm9rsAGAVGV-47">
          <mxGeometry relative="1" as="geometry" />
        </mxCell>
        <mxCell id="rwb06WOGkpm9rsAGAVGV-3" value="TextToSpeech Page" style="rounded=1;whiteSpace=wrap;html=1;" vertex="1" parent="1">
          <mxGeometry x="620" y="350" width="120" height="60" as="geometry" />
        </mxCell>
        <mxCell id="rwb06WOGkpm9rsAGAVGV-37" style="edgeStyle=orthogonalEdgeStyle;rounded=0;orthogonalLoop=1;jettySize=auto;html=1;" edge="1" parent="1" source="rwb06WOGkpm9rsAGAVGV-4" target="rwb06WOGkpm9rsAGAVGV-20">
          <mxGeometry relative="1" as="geometry">
            <Array as="points">
              <mxPoint x="290" y="320" />
              <mxPoint x="290" y="320" />
            </Array>
          </mxGeometry>
        </mxCell>
        <mxCell id="rwb06WOGkpm9rsAGAVGV-40" style="edgeStyle=orthogonalEdgeStyle;rounded=0;orthogonalLoop=1;jettySize=auto;html=1;" edge="1" parent="1" source="rwb06WOGkpm9rsAGAVGV-4" target="rwb06WOGkpm9rsAGAVGV-38">
          <mxGeometry relative="1" as="geometry" />
        </mxCell>
        <mxCell id="rwb06WOGkpm9rsAGAVGV-41" style="edgeStyle=orthogonalEdgeStyle;rounded=0;orthogonalLoop=1;jettySize=auto;html=1;" edge="1" parent="1" source="rwb06WOGkpm9rsAGAVGV-4" target="rwb06WOGkpm9rsAGAVGV-39">
          <mxGeometry relative="1" as="geometry" />
        </mxCell>
        <mxCell id="rwb06WOGkpm9rsAGAVGV-4" value="Audio Page" style="rounded=1;whiteSpace=wrap;html=1;" vertex="1" parent="1">
          <mxGeometry x="260" y="350" width="120" height="60" as="geometry" />
        </mxCell>
        <mxCell id="rwb06WOGkpm9rsAGAVGV-18" style="edgeStyle=orthogonalEdgeStyle;rounded=0;orthogonalLoop=1;jettySize=auto;html=1;" edge="1" parent="1" source="rwb06WOGkpm9rsAGAVGV-10" target="rwb06WOGkpm9rsAGAVGV-3">
          <mxGeometry relative="1" as="geometry">
            <Array as="points">
              <mxPoint x="500" y="310" />
              <mxPoint x="680" y="310" />
            </Array>
          </mxGeometry>
        </mxCell>
        <mxCell id="rwb06WOGkpm9rsAGAVGV-27" style="edgeStyle=orthogonalEdgeStyle;rounded=0;orthogonalLoop=1;jettySize=auto;html=1;" edge="1" parent="1" source="rwb06WOGkpm9rsAGAVGV-10" target="rwb06WOGkpm9rsAGAVGV-2">
          <mxGeometry relative="1" as="geometry" />
        </mxCell>
        <mxCell id="rwb06WOGkpm9rsAGAVGV-28" style="edgeStyle=orthogonalEdgeStyle;rounded=0;orthogonalLoop=1;jettySize=auto;html=1;" edge="1" parent="1" source="rwb06WOGkpm9rsAGAVGV-10" target="rwb06WOGkpm9rsAGAVGV-4">
          <mxGeometry relative="1" as="geometry">
            <Array as="points">
              <mxPoint x="500" y="310" />
              <mxPoint x="320" y="310" />
            </Array>
          </mxGeometry>
        </mxCell>
        <mxCell id="rwb06WOGkpm9rsAGAVGV-30" value="" style="edgeStyle=orthogonalEdgeStyle;rounded=0;orthogonalLoop=1;jettySize=auto;html=1;" edge="1" parent="1" source="rwb06WOGkpm9rsAGAVGV-10">
          <mxGeometry relative="1" as="geometry">
            <mxPoint x="640" y="250" as="targetPoint" />
          </mxGeometry>
        </mxCell>
        <mxCell id="rwb06WOGkpm9rsAGAVGV-10" value="TabBar" style="rounded=1;whiteSpace=wrap;html=1;" vertex="1" parent="1">
          <mxGeometry x="440" y="220" width="120" height="60" as="geometry" />
        </mxCell>
        <mxCell id="rwb06WOGkpm9rsAGAVGV-25" style="edgeStyle=orthogonalEdgeStyle;rounded=0;orthogonalLoop=1;jettySize=auto;html=1;" edge="1" parent="1" source="rwb06WOGkpm9rsAGAVGV-20" target="rwb06WOGkpm9rsAGAVGV-23">
          <mxGeometry relative="1" as="geometry" />
        </mxCell>
        <mxCell id="rwb06WOGkpm9rsAGAVGV-26" style="edgeStyle=orthogonalEdgeStyle;rounded=0;orthogonalLoop=1;jettySize=auto;html=1;" edge="1" parent="1" source="rwb06WOGkpm9rsAGAVGV-20" target="rwb06WOGkpm9rsAGAVGV-24">
          <mxGeometry relative="1" as="geometry" />
        </mxCell>
        <mxCell id="rwb06WOGkpm9rsAGAVGV-20" value="Local Storage" style="rounded=1;whiteSpace=wrap;html=1;" vertex="1" parent="1">
          <mxGeometry x="280" y="220" width="120" height="60" as="geometry" />
        </mxCell>
        <mxCell id="rwb06WOGkpm9rsAGAVGV-23" value="AsyncStorage Package&amp;nbsp;" style="rounded=1;whiteSpace=wrap;html=1;strokeColor=#3399FF;" vertex="1" parent="1">
          <mxGeometry x="80" y="200" width="120" height="40" as="geometry" />
        </mxCell>
        <mxCell id="rwb06WOGkpm9rsAGAVGV-24" value="React-Native-Storage Package" style="rounded=1;whiteSpace=wrap;html=1;strokeColor=#3399FF;" vertex="1" parent="1">
          <mxGeometry x="80" y="260" width="120" height="40" as="geometry" />
        </mxCell>
        <mxCell id="rwb06WOGkpm9rsAGAVGV-31" value="React-Native-Bottom-Tabs Package" style="rounded=1;whiteSpace=wrap;html=1;strokeColor=#3399FF;" vertex="1" parent="1">
          <mxGeometry x="640" y="230" width="120" height="40" as="geometry" />
        </mxCell>
        <mxCell id="rwb06WOGkpm9rsAGAVGV-33" value="React-Native-Navigation Package" style="rounded=1;whiteSpace=wrap;html=1;strokeColor=#3399FF;" vertex="1" parent="1">
          <mxGeometry x="180" y="125" width="120" height="50" as="geometry" />
        </mxCell>
        <mxCell id="rwb06WOGkpm9rsAGAVGV-35" value="React-Native-Gesture-Handler Package" style="rounded=1;whiteSpace=wrap;html=1;strokeColor=#3399FF;" vertex="1" parent="1">
          <mxGeometry x="540" y="125" width="120" height="50" as="geometry" />
        </mxCell>
        <mxCell id="rwb06WOGkpm9rsAGAVGV-38" value="Expo-Haptics Package" style="rounded=1;whiteSpace=wrap;html=1;strokeColor=#3399FF;" vertex="1" parent="1">
          <mxGeometry x="80" y="330" width="120" height="40" as="geometry" />
        </mxCell>
        <mxCell id="rwb06WOGkpm9rsAGAVGV-39" value="Expo-Audio Package" style="rounded=1;whiteSpace=wrap;html=1;strokeColor=#3399FF;" vertex="1" parent="1">
          <mxGeometry x="80" y="390" width="120" height="40" as="geometry" />
        </mxCell>
        <mxCell id="rwb06WOGkpm9rsAGAVGV-42" style="edgeStyle=orthogonalEdgeStyle;rounded=0;orthogonalLoop=1;jettySize=auto;html=1;entryX=0.397;entryY=0.98;entryDx=0;entryDy=0;entryPerimeter=0;" edge="1" parent="1" source="rwb06WOGkpm9rsAGAVGV-2" target="rwb06WOGkpm9rsAGAVGV-39">
          <mxGeometry relative="1" as="geometry">
            <Array as="points">
              <mxPoint x="500" y="450" />
              <mxPoint x="128" y="450" />
            </Array>
          </mxGeometry>
        </mxCell>
        <mxCell id="rwb06WOGkpm9rsAGAVGV-47" value="Expo-Speech Package" style="rounded=1;whiteSpace=wrap;html=1;strokeColor=#3399FF;" vertex="1" parent="1">
          <mxGeometry x="620" y="450" width="120" height="40" as="geometry" />
        </mxCell>
        <mxCell id="rwb06WOGkpm9rsAGAVGV-53" style="edgeStyle=orthogonalEdgeStyle;rounded=0;orthogonalLoop=1;jettySize=auto;html=1;" edge="1" parent="1" source="rwb06WOGkpm9rsAGAVGV-52" target="rwb06WOGkpm9rsAGAVGV-1">
          <mxGeometry relative="1" as="geometry" />
        </mxCell>
        <mxCell id="rwb06WOGkpm9rsAGAVGV-52" value="NativeWind Package" style="rounded=1;whiteSpace=wrap;html=1;strokeColor=#3399FF;" vertex="1" parent="1">
          <mxGeometry x="360" y="30" width="120" height="50" as="geometry" />
        </mxCell>
      </root>
    </mxGraphModel>
  </diagram>
</mxfile>
